<?xml version="1.0" encoding="utf-8"?>
<!-- Generator: Adobe Illustrator 22.0.1, SVG Export Plug-In . SVG Version: 6.00 Build 0)  -->
<svg version="1.1" id="Layer_1" xmlns="http://www.w3.org/2000/svg" xmlns:xlink="http://www.w3.org/1999/xlink" x="0px" y="0px"
	 viewBox="0 0 1280 1024" style="enable-background:new 0 0 1280 1024;" xml:space="preserve">
<style type="text/css">
	.st0{fill:url(#SVGID_1_);}
	.st1{fill:none;stroke:#FFFFFF;stroke-width:9;stroke-miterlimit:10;}
	.st2{fill:#FFFFFF;}
	.st3{font-family:'Karla-Bold';}
	.st4{font-size:38px;}
	.st5{font-size:79px;}
	.st6{fill:none;}
	.st7{font-size:23px;}
	.st8{letter-spacing:1;}
</style>
<linearGradient id="SVGID_1_" gradientUnits="userSpaceOnUse" x1="640" y1="4.9186" x2="640" y2="1111.5209">
	<stop  offset="0" style="stop-color:#74BBEF"/>
	<stop  offset="0.2021" style="stop-color:#8BBAF2"/>
	<stop  offset="0.622" style="stop-color:#C4B7F8"/>
	<stop  offset="1" style="stop-color:#FDB5FF"/>
</linearGradient>
<rect class="st0" width="1280" height="1024"/>
<circle class="st1" cx="639.5" cy="661.5" r="96"/>
<text transform="matrix(1 0 0 1 582.6812 672.3042)" class="st2 st3 st4">START</text>
<text transform="matrix(1 0 0 1 266.7969 320.2031)" class="st2 st3 st5">music visualization</text>
<rect x="351" y="370.7" class="st6" width="578.7" height="160.9"/>
<text transform="matrix(1 0 0 1 351 386.4878)"><tspan x="0" y="0" class="st2 st3 st7">Lorem</tspan><tspan x="68" y="0" class="st2 st3 st7 st8"> </tspan><tspan x="75.7" y="0" class="st2 st3 st7">ipsum</tspan><tspan x="145.6" y="0" class="st2 st3 st7 st8"> </tspan><tspan x="153.4" y="0" class="st2 st3 st7">dolor</tspan><tspan x="210.1" y="0" class="st2 st3 st7 st8"> </tspan><tspan x="217.8" y="0" class="st2 st3 st7">sit</tspan><tspan x="246.6" y="0" class="st2 st3 st7 st8"> </tspan><tspan x="254.3" y="0" class="st2 st3 st7">amet,</tspan><tspan x="316.6" y="0" class="st2 st3 st7 st8"> </tspan><tspan x="324.4" y="0" class="st2 st3 st7">consectetur</tspan><tspan x="454.8" y="0" class="st2 st3 st7 st8"> </tspan><tspan x="462.5" y="0" class="st2 st3 st7">adipiscing </tspan><tspan x="0" y="27.6" class="st2 st3 st7">elit.</tspan><tspan x="40.8" y="27.6" class="st2 st3 st7"> </tspan><tspan x="46.4" y="27.6" class="st2 st3 st7">Ut</tspan><tspan x="71.4" y="27.6" class="st2 st3 st7"> </tspan><tspan x="77" y="27.6" class="st2 st3 st7">ac</tspan><tspan x="102.6" y="27.6" class="st2 st3 st7"> </tspan><tspan x="108.3" y="27.6" class="st2 st3 st7">finibus</tspan><tspan x="186.8" y="27.6" class="st2 st3 st7"> </tspan><tspan x="192.4" y="27.6" class="st2 st3 st7">nulla.</tspan><tspan x="253.5" y="27.6" class="st2 st3 st7"> </tspan><tspan x="259.2" y="27.6" class="st2 st3 st7">Aliquam</tspan><tspan x="351.8" y="27.6" class="st2 st3 st7"> </tspan><tspan x="357.4" y="27.6" class="st2 st3 st7">cursus</tspan><tspan x="432.3" y="27.6" class="st2 st3 st7"> </tspan><tspan x="437.9" y="27.6" class="st2 st3 st7">ipsum</tspan><tspan x="507.9" y="27.6" class="st2 st3 st7"> </tspan><tspan x="513.5" y="27.6" class="st2 st3 st7">a</tspan><tspan x="526.9" y="27.6" class="st2 st3 st7"> </tspan><tspan x="532.6" y="27.6" class="st2 st3 st7">sem </tspan><tspan x="175.4" y="55.2" class="st2 st3 st7">commodo imperdiet.</tspan></text>
</svg>
