<?xml version="1.0" encoding="utf-8"?>
<!-- Generator: Adobe Illustrator 22.0.1, SVG Export Plug-In . SVG Version: 6.00 Build 0)  -->
<svg version="1.1" id="Layer_1" xmlns="http://www.w3.org/2000/svg" xmlns:xlink="http://www.w3.org/1999/xlink" x="0px" y="0px"
	 viewBox="0 0 1280 1024" style="enable-background:new 0 0 1280 1024;" xml:space="preserve">
<style type="text/css">
	.st0{fill:url(#SVGID_1_);}
	.st1{fill:none;stroke:#FFFFFF;stroke-width:4;stroke-miterlimit:10;}
	.st2{fill:#FFFFFF;}
	.st3{font-family:'Karla-Bold';}
	.st4{font-size:38px;}
	.st5{font-size:79px;}
	.st6{fill:none;}
	.st7{font-size:23px;}
</style>
<linearGradient id="SVGID_1_" gradientUnits="userSpaceOnUse" x1="640" y1="1019.0814" x2="640" y2="-87.5209" gradientTransform="matrix(1 0 0 -1 0 1024)">
	<stop  offset="0" style="stop-color:#74BBEF"/>
	<stop  offset="0.2021" style="stop-color:#8BBAF2"/>
	<stop  offset="0.622" style="stop-color:#C4B7F8"/>
	<stop  offset="1" style="stop-color:#FDB5FF"/>
</linearGradient>
<rect class="st0" width="1280" height="1024"/>
<circle class="st1" cx="639.5" cy="661.5" r="96"/>
<text transform="matrix(1 0 0 1 582.6812 672.3042)" class="st2 st3 st4">START</text>
<text transform="matrix(1 0 0 1 266.7969 320.2031)" class="st2 st3 st5">music visualization</text>
<rect x="351" y="370.7" class="st6" width="578.7" height="160.9"/>
<text transform="matrix(1 0 0 1 351 386.4878)" class="st2 st3 st7">Lorem</text>
<text transform="matrix(1 0 0 1 419 386.4878)" class="st2 st3 st7"> </text>
<text transform="matrix(1 0 0 1 426.7 386.4878)" class="st2 st3 st7">ipsum</text>
<text transform="matrix(1 0 0 1 496.6 386.4878)" class="st2 st3 st7"> </text>
<text transform="matrix(1 0 0 1 504.4 386.4878)" class="st2 st3 st7">dolor</text>
<text transform="matrix(1 0 0 1 561.1 386.4878)" class="st2 st3 st7"> </text>
<text transform="matrix(1 0 0 1 568.8 386.4878)" class="st2 st3 st7">sit</text>
<text transform="matrix(1 0 0 1 597.6 386.4878)" class="st2 st3 st7"> </text>
<text transform="matrix(1 0 0 1 605.3 386.4878)" class="st2 st3 st7">amet,</text>
<text transform="matrix(1 0 0 1 667.6 386.4878)" class="st2 st3 st7"> </text>
<text transform="matrix(1 0 0 1 675.4 386.4878)" class="st2 st3 st7">consectetur</text>
<text transform="matrix(1 0 0 1 805.8 386.4878)" class="st2 st3 st7"> </text>
<text transform="matrix(1 0 0 1 813.5 386.4878)" class="st2 st3 st7">adipiscing </text>
<text transform="matrix(1 0 0 1 351 414.0878)" class="st2 st3 st7">elit.</text>
<text transform="matrix(1 0 0 1 391.8 414.0878)" class="st2 st3 st7"> </text>
<text transform="matrix(1 0 0 1 397.4 414.0878)" class="st2 st3 st7">Ut</text>
<text transform="matrix(1 0 0 1 422.4 414.0878)" class="st2 st3 st7"> </text>
<text transform="matrix(1 0 0 1 428 414.0878)" class="st2 st3 st7">ac</text>
<text transform="matrix(1 0 0 1 453.6 414.0878)" class="st2 st3 st7"> </text>
<text transform="matrix(1 0 0 1 459.3 414.0878)" class="st2 st3 st7">finibus</text>
<text transform="matrix(1 0 0 1 537.8 414.0878)" class="st2 st3 st7"> </text>
<text transform="matrix(1 0 0 1 543.4 414.0878)" class="st2 st3 st7">nulla.</text>
<text transform="matrix(1 0 0 1 604.5 414.0878)" class="st2 st3 st7"> </text>
<text transform="matrix(1 0 0 1 610.2 414.0878)" class="st2 st3 st7">Aliquam</text>
<text transform="matrix(1 0 0 1 702.8 414.0878)" class="st2 st3 st7"> </text>
<text transform="matrix(1 0 0 1 708.4 414.0878)" class="st2 st3 st7">cursus</text>
<text transform="matrix(1 0 0 1 783.3 414.0878)" class="st2 st3 st7"> </text>
<text transform="matrix(1 0 0 1 788.9 414.0878)" class="st2 st3 st7">ipsum</text>
<text transform="matrix(1 0 0 1 858.9 414.0878)" class="st2 st3 st7"> </text>
<text transform="matrix(1 0 0 1 864.5 414.0878)" class="st2 st3 st7">a</text>
<text transform="matrix(1 0 0 1 877.9 414.0878)" class="st2 st3 st7"> </text>
<text transform="matrix(1 0 0 1 883.6 414.0878)" class="st2 st3 st7">sem </text>
<text transform="matrix(1 0 0 1 526.4 441.6878)" class="st2 st3 st7">commodo imperdiet.</text>
</svg>
