<?xml version="1.0" encoding="utf-8"?>
<!-- Generator: Adobe Illustrator 22.0.1, SVG Export Plug-In . SVG Version: 6.00 Build 0)  -->
<svg version="1.1" xmlns="http://www.w3.org/2000/svg" xmlns:xlink="http://www.w3.org/1999/xlink" x="0px" y="0px"
	 viewBox="0 0 750 600" style="enable-background:new 0 0 750 600;" xml:space="preserve">
<style type="text/css">
	.st0{fill:#FFFFFF;}
	.st1{fill:#ECD2FF;}
	.st2{font-family:'NudistaLight';}
	.st3{font-size:28px;}
	.st4{fill:none;}
	.st5{font-size:11px;}
	.st6{font-family:'MyriadPro-Regular';}
	.st7{font-size:18px;}
	.st8{font-size:15px;}
	.st9{font-size:23px;}
	.st10{fill:none;stroke:#ECD2FF;stroke-width:8;stroke-miterlimit:10;}
</style>
<g id="Layer_2">
	<rect x="-22" y="-6" class="st0" width="866" height="685"/>
</g>
<g id="Layer_1">
	<g>
		<rect x="199" y="10" class="st1" width="144.5" height="49"/>
	</g>
	<text transform="matrix(1 0 0 1 210.3896 39.8135)" class="st0 st2 st3">main page</text>
	<g>
		<rect x="508" y="10" class="st1" width="162" height="49"/>
	</g>
	<text transform="matrix(1 0 0 1 517.2881 43.7119)" class="st0 st2 st3">introduction</text>
	<rect x="585" y="105" class="st1" width="9" height="92"/>
	<g>
		<rect x="545" y="197" class="st1" width="94" height="49"/>
	</g>
	<text transform="matrix(1 0 0 1 564.2881 231.7119)" class="st0 st2 st3">form</text>
	<rect x="226" y="245" class="st1" width="9" height="92"/>
	<rect x="525.3" y="63.7" class="st4" width="134" height="56.3"/>
	<text transform="matrix(1 0 0 1 525.333 71.8066)"><tspan x="0" y="0" class="st2 st5">*explains how to use the </tspan><tspan x="0" y="13.2" class="st2 st5">app and what its purpose </tspan><tspan x="0" y="26.4" class="st2 st5">is to anyone using it</tspan></text>
	<rect x="531.3" y="254.7" class="st4" width="134" height="50.3"/>
	<text transform="matrix(1 0 0 1 531.333 262.8066)"><tspan x="0" y="0" class="st2 st5">* compromised of several </tspan><tspan x="0" y="13.2" class="st2 st5">questions with drop down </tspan><tspan x="0" y="26.4" class="st2 st5">list answers; answers </tspan><tspan x="0" y="39.6" class="st2 st5">determine randomized list </tspan></text>
	<g>
		<rect x="165" y="197" class="st1" width="131" height="49"/>
	</g>
	<rect x="165.3" y="164.7" class="st4" width="134" height="32.3"/>
	<text transform="matrix(1 0 0 1 165.333 172.8066)"><tspan x="0" y="0" class="st2 st5">*randomized list of songs </tspan><tspan x="0" y="13.2" class="st2 st5">determined by form sent</tspan></text>
	<text transform="matrix(1 0 0 1 156.2881 417.7119)" class="st0 st6 st3">song list</text>
	<rect x="316" y="279" class="st1" width="9" height="64"/>
	<rect x="257" y="241" class="st1" width="9" height="47"/>
	<rect x="273" y="245" class="st1" width="9" height="27"/>
	<rect x="402" y="263" class="st1" width="9" height="80"/>
	<rect x="102" y="220" class="st1" width="9" height="119"/>
	<rect x="286" y="250" transform="matrix(-1.836970e-16 1 -1 -1.836970e-16 574 -7)" class="st1" width="9" height="67"/>
	<rect x="337" y="199" transform="matrix(-1.836970e-16 1 -1 -1.836970e-16 609 -74)" class="st1" width="9" height="137"/>
	
		<rect x="261.2" y="531.2" transform="matrix(-1 -1.224647e-16 1.224647e-16 -1 531.5 1097.25)" class="st1" width="9" height="34.8"/>
	<g>
		<rect x="176.9" y="337" class="st1" width="106.9" height="40"/>
	</g>
	<text transform="matrix(1 0 0 1 190.1467 361.7119)" class="st0 st2 st7">volume lvl</text>
	<g>
		<rect x="43.9" y="337" class="st1" width="126.1" height="40"/>
	</g>
	<text transform="matrix(1 0 0 1 54.1496 361.7119)" class="st0 st2 st7">current mood</text>
	<g>
		<rect x="290.9" y="337" class="st1" width="59.1" height="40"/>
	</g>
	<text transform="matrix(1 0 0 1 301.1496 361.7119)" class="st0 st2 st7">color</text>
	<rect x="102" y="377" class="st1" width="9" height="64"/>
	<rect x="226" y="377" class="st1" width="9" height="64"/>
	<rect x="316" y="377" class="st1" width="9" height="64"/>
	<rect x="402" y="376" class="st1" width="9" height="64"/>
	<rect x="261" y="437" class="st1" width="9" height="56"/>
	<rect x="506" y="490" class="st1" width="9" height="56"/>
	<g>
		<rect x="184.3" y="493" class="st1" width="165.2" height="40"/>
	</g>
	<text transform="matrix(1 0 0 1 190.5462 517.7119)" class="st0 st2 st8">community connections</text>
	<g>
		<rect x="442.5" y="450" class="st1" width="145.5" height="40"/>
	</g>
	<text transform="matrix(1 0 0 1 448.7665 474.7119)" class="st0 st2 st8">external youtube link</text>
	<g>
		<rect x="582.5" y="544" class="st1" width="145.5" height="40"/>
	</g>
	<text transform="matrix(1 0 0 1 588.7665 568.7119)" class="st0 st2 st8">external comm. link</text>
	<g>
		<rect x="356.8" y="337" class="st1" width="99.2" height="40"/>
	</g>
	<text transform="matrix(1 0 0 1 363.1301 361.7119)" class="st0 st2 st7">time of day</text>
	<text transform="matrix(1 0 0 1 172.1301 229.7119)" class="st0 st2 st7">list of questions</text>
	<g>
		<rect x="403.8" y="542" class="st1" width="128.2" height="40"/>
	</g>
	<text transform="matrix(1 0 0 1 411.2881 568.7119)" class="st0 st2 st9">list of songs</text>
	<rect x="163.3" y="148.7" class="st4" width="134" height="32.3"/>
	<text transform="matrix(1 0 0 1 163.333 156.8066)" class="st2 st5">*all drop down lists for ?’s</text>
	<rect x="582.3" y="498.7" class="st4" width="134" height="38.3"/>
	<text transform="matrix(1 0 0 1 582.333 506.8066)"><tspan x="0" y="0" class="st2 st5">*links to online music </tspan><tspan x="0" y="13.2" class="st2 st5">communities for genres @ </tspan><tspan x="0" y="26.4" class="st2 st5">places like reddit, etc.</tspan></text>
	<rect x="44.3" y="493.7" class="st4" width="134" height="38.3"/>
	<text transform="matrix(1 0 0 1 44.333 501.8066)"><tspan x="0" y="0" class="st2 st5">*yes/no answer to </tspan><tspan x="0" y="13.2" class="st2 st5">whether someone wants </tspan><tspan x="0" y="26.4" class="st2 st5">to talk about music w/ </tspan></text>
	<rect x="417" y="96" transform="matrix(-1.836970e-16 1 -1 -1.836970e-16 647 -196)" class="st1" width="9" height="259"/>
	<rect x="413" y="-40" transform="matrix(-1.836970e-16 1 -1 -1.836970e-16 452 -383)" class="st1" width="9" height="149"/>
	<line class="st10" x1="495" y1="37" x2="472.5" y2="14.5"/>
	<line class="st10" x1="495" y1="31.5" x2="472.5" y2="54"/>
	
		<rect x="130.2" y="192.2" transform="matrix(-1.836970e-16 1 -1 -1.836970e-16 359.25 89.75)" class="st1" width="9" height="64.5"/>
	
		<rect x="252.2" y="282.2" transform="matrix(-1.836970e-16 1 -1 -1.836970e-16 693.25 179.75)" class="st1" width="9" height="308.5"/>
	
		<rect x="328.2" y="490.2" transform="matrix(-1.836970e-16 1 -1 -1.836970e-16 894.25 228.75)" class="st1" width="9" height="142.5"/>
	
		<rect x="553.2" y="536.2" transform="matrix(-1.836970e-16 1 -1 -1.836970e-16 1120.25 4.75)" class="st1" width="9" height="52.5"/>
</g>
</svg>
