<?xml version="1.0" encoding="utf-8"?>
<!-- Generator: Adobe Illustrator 22.0.1, SVG Export Plug-In . SVG Version: 6.00 Build 0)  -->
<svg version="1.1" xmlns="http://www.w3.org/2000/svg" xmlns:xlink="http://www.w3.org/1999/xlink" x="0px" y="0px"
	 viewBox="0 0 750 600" style="enable-background:new 0 0 750 600;" xml:space="preserve">
<style type="text/css">
	.st0{fill:#FFFFFF;}
	.st1{fill:#4C4C47;}
	.st2{fill:#9B9B9B;}
	.st3{fill:#898989;}
	.st4{fill:#BABABA;}
	.st5{font-family:'NudistaLight';}
	.st6{font-size:13.6667px;}
	.st7{fill:#707070;stroke:#FFFFFF;stroke-miterlimit:10;}
	.st8{font-size:10.25px;}
	.st9{fill:none;}
	.st10{font-size:5.6944px;}
	.st11{fill:#FFFFFF;stroke:#4C4C47;stroke-miterlimit:10;}
	.st12{font-size:6.8333px;}
	.st13{fill:#FFFFFF;stroke:#4C4C47;stroke-width:6;stroke-miterlimit:10;}
</style>
<g id="Layer_1">
	<g>
		<path class="st0" d="M44.7,232.1c-19.2,0-34.8-15.6-34.8-34.8v-156c0-19.2,15.6-34.8,34.8-34.8h77.4c19.2,0,34.8,15.6,34.8,34.8
			v156c0,19.2-15.6,34.8-34.8,34.8H44.7z"/>
		<path class="st1" d="M122.2,7c18.9,0,34.3,15.4,34.3,34.3v156c0,18.9-15.4,34.3-34.3,34.3H44.7c-18.9,0-34.3-15.4-34.3-34.3v-156
			C10.4,22.4,25.8,7,44.7,7H122.2 M122.2,6H44.7C25.3,6,9.4,21.9,9.4,41.3v156c0,19.4,15.9,35.3,35.3,35.3h77.4
			c19.4,0,35.3-15.9,35.3-35.3v-156C157.5,21.9,141.6,6,122.2,6L122.2,6z"/>
	</g>
	<g>
		<rect x="23.6" y="33.8" class="st0" width="120.9" height="159.6"/>
		<path class="st1" d="M143.9,34.3v158.6H24.1V34.3H143.9 M144.9,33.3H23.1v160.6h121.9V33.3L144.9,33.3z"/>
	</g>
	<g>
		<path class="st0" d="M84.6,223c-6,0-10.9-4.9-10.9-10.9c0-6,4.9-10.9,10.9-10.9c6,0,10.9,4.9,10.9,10.9
			C95.5,218.1,90.6,223,84.6,223z"/>
		<path class="st1" d="M84.6,201.8c5.7,0,10.4,4.7,10.4,10.4s-4.7,10.4-10.4,10.4s-10.4-4.7-10.4-10.4S78.9,201.8,84.6,201.8
			 M84.6,200.8c-6.3,0-11.4,5.1-11.4,11.4c0,6.3,5.1,11.4,11.4,11.4S96,218.4,96,212.1C96,205.8,90.9,200.8,84.6,200.8L84.6,200.8z"
			/>
	</g>
	<g>
		<path class="st0" d="M242.9,232.1c-19.2,0-34.8-15.6-34.8-34.8v-156c0-19.2,15.6-34.8,34.8-34.8h77.4c19.2,0,34.8,15.6,34.8,34.8
			v156c0,19.2-15.6,34.8-34.8,34.8H242.9z"/>
		<path class="st1" d="M320.3,7c18.9,0,34.3,15.4,34.3,34.3v156c0,18.9-15.4,34.3-34.3,34.3h-77.4c-18.9,0-34.3-15.4-34.3-34.3v-156
			C208.6,22.4,224,7,242.9,7H320.3 M320.3,6h-77.4c-19.4,0-35.3,15.9-35.3,35.3v156c0,19.4,15.9,35.3,35.3,35.3h77.4
			c19.4,0,35.3-15.9,35.3-35.3v-156C355.6,21.9,339.7,6,320.3,6L320.3,6z"/>
	</g>
	<g>
		<rect x="221.8" y="33.8" class="st0" width="120.9" height="159.6"/>
		<path class="st1" d="M342.1,34.3v158.6H222.2V34.3H342.1 M343.1,33.3H221.2v160.6h121.9V33.3L343.1,33.3z"/>
	</g>
	<g>
		<path class="st0" d="M282.8,223c-6,0-10.9-4.9-10.9-10.9c0-6,4.9-10.9,10.9-10.9s10.9,4.9,10.9,10.9
			C293.6,218.1,288.8,223,282.8,223z"/>
		<path class="st1" d="M282.8,201.8c5.7,0,10.4,4.7,10.4,10.4s-4.7,10.4-10.4,10.4s-10.4-4.7-10.4-10.4S277,201.8,282.8,201.8
			 M282.8,200.8c-6.3,0-11.4,5.1-11.4,11.4c0,6.3,5.1,11.4,11.4,11.4s11.4-5.1,11.4-11.4C294.1,205.8,289,200.8,282.8,200.8
			L282.8,200.8z"/>
	</g>
	<g>
		<path class="st0" d="M436.5,232.1c-19.2,0-34.8-15.6-34.8-34.8v-156c0-19.2,15.6-34.8,34.8-34.8h77.4c19.2,0,34.8,15.6,34.8,34.8
			v156c0,19.2-15.6,34.8-34.8,34.8H436.5z"/>
		<path class="st1" d="M513.9,7c18.9,0,34.3,15.4,34.3,34.3v156c0,18.9-15.4,34.3-34.3,34.3h-77.4c-18.9,0-34.3-15.4-34.3-34.3v-156
			c0-18.9,15.4-34.3,34.3-34.3H513.9 M513.9,6h-77.4c-19.4,0-35.3,15.9-35.3,35.3v156c0,19.4,15.9,35.3,35.3,35.3h77.4
			c19.4,0,35.3-15.9,35.3-35.3v-156C549.2,21.9,533.4,6,513.9,6L513.9,6z"/>
	</g>
	<g>
		<rect x="415.4" y="33.8" class="st0" width="120.9" height="159.6"/>
		<path class="st1" d="M535.7,34.3v158.6H415.9V34.3H535.7 M536.7,33.3H414.9v160.6h121.9V33.3L536.7,33.3z"/>
	</g>
	<g>
		<path class="st0" d="M476.4,223c-6,0-10.9-4.9-10.9-10.9c0-6,4.9-10.9,10.9-10.9s10.9,4.9,10.9,10.9
			C487.2,218.1,482.4,223,476.4,223z"/>
		<path class="st1" d="M476.4,201.8c5.7,0,10.4,4.7,10.4,10.4s-4.7,10.4-10.4,10.4s-10.4-4.7-10.4-10.4S470.6,201.8,476.4,201.8
			 M476.4,200.8c-6.3,0-11.4,5.1-11.4,11.4c0,6.3,5.1,11.4,11.4,11.4s11.4-5.1,11.4-11.4C487.8,205.8,482.7,200.8,476.4,200.8
			L476.4,200.8z"/>
	</g>
	<g>
		<path class="st0" d="M631.3,232.1c-19.2,0-34.8-15.6-34.8-34.8v-156c0-19.2,15.6-34.8,34.8-34.8h77.4c19.2,0,34.8,15.6,34.8,34.8
			v156c0,19.2-15.6,34.8-34.8,34.8H631.3z"/>
		<path class="st1" d="M708.7,7C727.6,7,743,22.4,743,41.3v156c0,18.9-15.4,34.3-34.3,34.3h-77.4c-18.9,0-34.3-15.4-34.3-34.3v-156
			c0-18.9,15.4-34.3,34.3-34.3H708.7 M708.7,6h-77.4c-19.4,0-35.3,15.9-35.3,35.3v156c0,19.4,15.9,35.3,35.3,35.3h77.4
			c19.4,0,35.3-15.9,35.3-35.3v-156C744,21.9,728.1,6,708.7,6L708.7,6z"/>
	</g>
	<g>
		<rect x="610.1" y="33.8" class="st0" width="120.9" height="159.6"/>
		<path class="st1" d="M730.5,34.3v158.6H610.6V34.3H730.5 M731.5,33.3H609.6v160.6h121.9V33.3L731.5,33.3z"/>
	</g>
	<g>
		<path class="st0" d="M671.1,223c-6,0-10.9-4.9-10.9-10.9c0-6,4.9-10.9,10.9-10.9s10.9,4.9,10.9,10.9
			C682,218.1,677.1,223,671.1,223z"/>
		<path class="st1" d="M671.1,201.8c5.7,0,10.4,4.7,10.4,10.4s-4.7,10.4-10.4,10.4s-10.4-4.7-10.4-10.4S665.4,201.8,671.1,201.8
			 M671.1,200.8c-6.3,0-11.4,5.1-11.4,11.4c0,6.3,5.1,11.4,11.4,11.4c6.3,0,11.4-5.1,11.4-11.4C682.5,205.8,677.4,200.8,671.1,200.8
			L671.1,200.8z"/>
	</g>
</g>
<g id="Layer_2">
	<rect x="24.2" y="106.2" class="st2" width="119.6" height="86.6"/>
	<rect x="59.5" y="34.5" class="st3" width="84.3" height="124.1"/>
	<rect x="24.2" y="34.5" class="st4" width="103.6" height="124.1"/>
	<text transform="matrix(1 0 0 1 45.1011 74.3335)" class="st0 st5 st6">TITLE HERE</text>
	<path class="st7" d="M111.6,184.8H58.7c-0.8,0-1.4-0.6-1.4-1.4v-14.2c0-0.8,0.6-1.4,1.4-1.4h52.9c0.8,0,1.4,0.6,1.4,1.4v14.2
		C113.1,184.2,112.4,184.8,111.6,184.8z"/>
	<text transform="matrix(1 0 0 1 73.9526 178.7314)" class="st5 st8">enter</text>
	<rect x="222.4" y="34.5" class="st4" width="119.6" height="158.3"/>
	<text transform="matrix(1 0 0 1 235.2959 78.8887)" class="st0 st5 st6">WELCOME</text>
	<rect x="255" y="88" class="st9" width="76.7" height="70.6"/>
	<text transform="matrix(1 0 0 1 255.0366 92.2129)"><tspan x="0" y="0" class="st0 st5 st10">Lorem ipsum dolor sit amet, </tspan><tspan x="0" y="6.8" class="st0 st5 st10">consectetur adipiscing elit, </tspan><tspan x="0" y="13.7" class="st0 st5 st10">sed do eiusmod tempor </tspan><tspan x="0" y="20.5" class="st0 st5 st10">incididunt ut labore et dolore </tspan><tspan x="0" y="27.3" class="st0 st5 st10">magna aliqua. Ut enim ad </tspan><tspan x="0" y="34.2" class="st0 st5 st10">minim veniam, quis nostrud </tspan><tspan x="0" y="41" class="st0 st5 st10">exercitation ullamco laboris </tspan><tspan x="0" y="47.8" class="st0 st5 st10">nisi ut aliquip ex ea commodo </tspan><tspan x="0" y="54.7" class="st0 st5 st10">consequat. Duis aute irure </tspan><tspan x="0" y="61.5" class="st0 st5 st10">dolor in reprehenderit in</tspan></text>
	<path class="st7" d="M309.2,185.4h-52.9c-0.8,0-1.4-0.6-1.4-1.4v-14.2c0-0.8,0.6-1.4,1.4-1.4h52.9c0.8,0,1.4,0.6,1.4,1.4v14.2
		C310.7,184.7,310,185.4,309.2,185.4z"/>
	<text transform="matrix(1 0 0 1 271.5498 179.3008)" class="st0 st5 st8">next</text>
	<rect x="416" y="34.5" class="st4" width="119.6" height="158.3"/>
	<text transform="matrix(1 0 0 1 428.9072 57.25)" class="st0 st5 st6">FILL IT OUT!</text>
	<rect x="448.6" y="66.4" class="st9" width="76.7" height="33"/>
	<text transform="matrix(1 0 0 1 448.6484 70.5742)"><tspan x="0" y="0" class="st0 st5 st10">Lorem ipsum dolor sit amet, </tspan><tspan x="0" y="6.8" class="st0 st5 st10">consectetur adipiscing elit, </tspan><tspan x="0" y="13.7" class="st0 st5 st10">sed do eiusmod tempor </tspan><tspan x="0" y="20.5" class="st0 st5 st10">incididunt ut labore et dolore </tspan><tspan x="0" y="27.3" class="st0 st5 st10">magna aliqua.</tspan></text>
	<rect x="430.4" y="106.2" class="st9" width="91.5" height="14.8"/>
	<text transform="matrix(1 0 0 1 430.4268 110.4355)"><tspan x="0" y="0" class="st0 st5 st10">1. Lorem ipsum dolor sit amet, </tspan><tspan x="0" y="6.8" class="st0 st5 st10">consectetur adipiscing elit?</tspan></text>
	<rect x="460.4" y="121" class="st0" width="37.6" height="9.1"/>
	<g>
		<rect x="460.5" y="121.2" class="st0" width="8.9" height="8.9"/>
		<path class="st1" d="M469.3,121.3v8.6h-8.6v-8.6H469.3 M469.5,121h-9.1v9.1h9.1V121L469.5,121z"/>
	</g>
	<line class="st11" x1="464.5" y1="127.5" x2="467.2" y2="124.7"/>
	<line class="st11" x1="465.2" y1="127.5" x2="462.4" y2="124.7"/>
	<rect x="430.4" y="144.9" class="st9" width="91.5" height="21.6"/>
	<text transform="matrix(1 0 0 1 430.4268 149.1577)"><tspan x="0" y="0" class="st0 st5 st10">2. Lorem ipsum dolor sit amet, </tspan><tspan x="0" y="6.8" class="st0 st5 st10">consectetur adipiscing elit, sed do </tspan><tspan x="0" y="13.7" class="st0 st5 st10">eiusmod tempor ?</tspan></text>
	<rect x="460.4" y="167.7" class="st0" width="37.6" height="9.1"/>
	<g>
		<rect x="460.5" y="167.8" class="st0" width="8.9" height="8.9"/>
		<path class="st1" d="M469.3,168v8.6h-8.6V168H469.3 M469.5,167.7h-9.1v9.1h9.1V167.7L469.5,167.7z"/>
	</g>
	<line class="st11" x1="464.5" y1="174.2" x2="467.2" y2="171.4"/>
	<line class="st11" x1="465.2" y1="174.2" x2="462.4" y2="171.4"/>
	<rect x="610.8" y="34.5" class="st4" width="119.6" height="158.3"/>
	<rect x="627.5" y="57.2" class="st9" width="91.5" height="14.8"/>
	<text transform="matrix(1 0 0 1 627.4541 61.4629)"><tspan x="0" y="0" class="st0 st5 st10">4. Lorem ipsum dolor sit amet, </tspan><tspan x="0" y="6.8" class="st0 st5 st10">consectetur adipiscing elit?</tspan></text>
	<rect x="657.4" y="72.1" class="st0" width="37.6" height="9.1"/>
	<g>
		<rect x="657.6" y="72.2" class="st0" width="8.9" height="8.9"/>
		<path class="st1" d="M666.3,72.3v8.6h-8.6v-8.6H666.3 M666.6,72.1h-9.1v9.1h9.1V72.1L666.6,72.1z"/>
	</g>
	<line class="st11" x1="661.5" y1="78.5" x2="664.3" y2="75.8"/>
	<line class="st11" x1="662.2" y1="78.5" x2="659.4" y2="75.8"/>
	<rect x="627.5" y="96" class="st9" width="91.5" height="21.6"/>
	<text transform="matrix(1 0 0 1 627.4541 100.1855)"><tspan x="0" y="0" class="st0 st5 st10">5. Lorem ipsum dolor sit amet, </tspan><tspan x="0" y="6.8" class="st0 st5 st10">consectetur adipiscing elit, sed do </tspan><tspan x="0" y="13.7" class="st0 st5 st10">eiusmod tempor ?</tspan></text>
	<g>
		<rect x="657.6" y="118.9" class="st0" width="8.9" height="8.9"/>
		<path class="st1" d="M666.3,119v8.6h-8.6V119H666.3 M666.6,118.8h-9.1v9.1h9.1V118.8L666.6,118.8z"/>
	</g>
	<rect x="670.7" y="121" class="st9" width="10.6" height="5.7"/>
	<text transform="matrix(1 0 0 1 670.7314 125.2407)" class="st0 st5 st10">YES</text>
	<g>
		<rect x="657.6" y="132.5" class="st0" width="8.9" height="8.9"/>
		<path class="st1" d="M666.3,132.7v8.6h-8.6v-8.6H666.3 M666.6,132.4h-9.1v9.1h9.1V132.4L666.6,132.4z"/>
	</g>
	<rect x="670.7" y="134.7" class="st9" width="10.6" height="5.7"/>
	<text transform="matrix(1 0 0 1 670.7314 138.9077)" class="st0 st5 st10">NO</text>
	<circle class="st1" cx="662" cy="123.3" r="2.3"/>
	<path class="st7" d="M697.6,183.1h-52.9c-0.8,0-1.4-0.6-1.4-1.4v-14.2c0-0.8,0.6-1.4,1.4-1.4h52.9c0.8,0,1.4,0.6,1.4,1.4v14.2
		C699,182.4,698.4,183.1,697.6,183.1z"/>
	<text transform="matrix(1 0 0 1 655.3555 178.1621)" class="st0 st5 st8">submit</text>
	<g>
		<path class="st0" d="M41.3,508.9c-19.2,0-34.8-15.6-34.8-34.8v-156c0-19.2,15.6-34.8,34.8-34.8h77.4c19.2,0,34.8,15.6,34.8,34.8
			v156c0,19.2-15.6,34.8-34.8,34.8H41.3z"/>
		<path class="st1" d="M118.7,283.8c18.9,0,34.3,15.4,34.3,34.3v156c0,18.9-15.4,34.3-34.3,34.3H41.3C22.4,508.4,7,493,7,474.1v-156
			c0-18.9,15.4-34.3,34.3-34.3H118.7 M118.7,282.8H41.3C21.9,282.8,6,298.6,6,318.1v156c0,19.4,15.9,35.3,35.3,35.3h77.4
			c19.4,0,35.3-15.9,35.3-35.3v-156C154.1,298.6,138.2,282.8,118.7,282.8L118.7,282.8z"/>
	</g>
	<g>
		<rect x="20.2" y="310.6" class="st0" width="120.9" height="159.6"/>
		<path class="st1" d="M140.5,311.1v158.6H20.7V311.1H140.5 M141.5,310.1H19.7v160.6h121.9V310.1L141.5,310.1z"/>
	</g>
	<g>
		<path class="st0" d="M81.2,499.8c-6,0-10.9-4.9-10.9-10.9S75.2,478,81.2,478c6,0,10.9,4.9,10.9,10.9S87.2,499.8,81.2,499.8z"/>
		<path class="st1" d="M81.2,478.5c5.7,0,10.4,4.7,10.4,10.4s-4.7,10.4-10.4,10.4s-10.4-4.7-10.4-10.4S75.4,478.5,81.2,478.5
			 M81.2,477.5c-6.3,0-11.4,5.1-11.4,11.4s5.1,11.4,11.4,11.4s11.4-5.1,11.4-11.4S87.5,477.5,81.2,477.5L81.2,477.5z"/>
	</g>
	<g>
		<path class="st0" d="M242.9,508.9c-19.2,0-34.8-15.6-34.8-34.8v-156c0-19.2,15.6-34.8,34.8-34.8h77.4c19.2,0,34.8,15.6,34.8,34.8
			v156c0,19.2-15.6,34.8-34.8,34.8H242.9z"/>
		<path class="st1" d="M320.3,283.8c18.9,0,34.3,15.4,34.3,34.3v156c0,18.9-15.4,34.3-34.3,34.3h-77.4c-18.9,0-34.3-15.4-34.3-34.3
			v-156c0-18.9,15.4-34.3,34.3-34.3H320.3 M320.3,282.8h-77.4c-19.4,0-35.3,15.9-35.3,35.3v156c0,19.4,15.9,35.3,35.3,35.3h77.4
			c19.4,0,35.3-15.9,35.3-35.3v-156C355.6,298.6,339.7,282.8,320.3,282.8L320.3,282.8z"/>
	</g>
	<g>
		<rect x="221.8" y="310.6" class="st0" width="120.9" height="159.6"/>
		<path class="st1" d="M342.1,311.1v158.6H222.2V311.1H342.1 M343.1,310.1H221.2v160.6h121.9V310.1L343.1,310.1z"/>
	</g>
	<g>
		<circle class="st0" cx="282.8" cy="488.9" r="10.9"/>
		<path class="st1" d="M282.8,478.5c5.7,0,10.4,4.7,10.4,10.4s-4.7,10.4-10.4,10.4s-10.4-4.7-10.4-10.4S277,478.5,282.8,478.5
			 M282.8,477.5c-6.3,0-11.4,5.1-11.4,11.4s5.1,11.4,11.4,11.4s11.4-5.1,11.4-11.4S289,477.5,282.8,477.5L282.8,477.5z"/>
	</g>
	<g>
		<path class="st0" d="M436.5,508.9c-19.2,0-34.8-15.6-34.8-34.8v-156c0-19.2,15.6-34.8,34.8-34.8h77.4c19.2,0,34.8,15.6,34.8,34.8
			v156c0,19.2-15.6,34.8-34.8,34.8H436.5z"/>
		<path class="st1" d="M513.9,283.8c18.9,0,34.3,15.4,34.3,34.3v156c0,18.9-15.4,34.3-34.3,34.3h-77.4c-18.9,0-34.3-15.4-34.3-34.3
			v-156c0-18.9,15.4-34.3,34.3-34.3H513.9 M513.9,282.8h-77.4c-19.4,0-35.3,15.9-35.3,35.3v156c0,19.4,15.9,35.3,35.3,35.3h77.4
			c19.4,0,35.3-15.9,35.3-35.3v-156C549.2,298.6,533.4,282.8,513.9,282.8L513.9,282.8z"/>
	</g>
	<g>
		<rect x="415.4" y="310.6" class="st0" width="120.9" height="159.6"/>
		<path class="st1" d="M535.7,311.1v158.6H415.9V311.1H535.7 M536.7,310.1H414.9v160.6h121.9V310.1L536.7,310.1z"/>
	</g>
	<g>
		<circle class="st0" cx="476.4" cy="488.9" r="10.9"/>
		<path class="st1" d="M476.4,478.5c5.7,0,10.4,4.7,10.4,10.4s-4.7,10.4-10.4,10.4s-10.4-4.7-10.4-10.4S470.6,478.5,476.4,478.5
			 M476.4,477.5c-6.3,0-11.4,5.1-11.4,11.4s5.1,11.4,11.4,11.4s11.4-5.1,11.4-11.4S482.7,477.5,476.4,477.5L476.4,477.5z"/>
	</g>
	<rect x="20.8" y="311.2" class="st4" width="119.6" height="158.3"/>
</g>
<g id="Layer_3">
	<text transform="matrix(1 0 0 1 43.9624 362.4727)" class="st0 st5 st6">LOADING . . .</text>
	<circle class="st0" cx="80.6" cy="382.4" r="4"/>
	<circle class="st0" cx="91.4" cy="384.1" r="3.4"/>
	<circle class="st0" cx="98.8" cy="391.5" r="2.8"/>
	<circle class="st0" cx="101.1" cy="400.6" r="2.8"/>
	<circle class="st0" cx="100.5" cy="410.3" r="2.3"/>
	<circle class="st0" cx="96" cy="417.1" r="2.3"/>
	<circle class="st0" cx="89.7" cy="421.1" r="1.7"/>
	<circle class="st0" cx="81.7" cy="422.3" r="1.7"/>
	<circle class="st0" cx="74.3" cy="421.7" r="1.1"/>
	<circle class="st0" cx="68.6" cy="418.3" r="1.1"/>
	<circle class="st0" cx="67.5" cy="386.4" r="4.6"/>
	<circle class="st0" cx="61.8" cy="398.9" r="4.6"/>
	<circle class="st0" cx="64.7" cy="414.3" r="0.6"/>
</g>
<g id="Layer_4">
	<rect x="222.4" y="311.2" class="st4" width="119.6" height="158.3"/>
	<rect x="416" y="311.2" class="st4" width="119.6" height="158.3"/>
	<text transform="matrix(1 0 0 1 236.4346 344.25)" class="st0 st5 st6">SONG RECS:</text>
	<rect x="236.1" y="360.2" class="st3" width="95.7" height="95.7"/>
	<rect x="236.1" y="381.8" class="st2" width="95.7" height="25.1"/>
	<rect x="236.1" y="430.8" class="st2" width="95.7" height="25.1"/>
	<rect x="236.1" y="455.9" class="st3" width="95.7" height="13.7"/>
	<rect x="428.5" y="335.1" class="st3" width="95.7" height="23.9"/>
	<rect x="428.5" y="311.2" class="st2" width="95.7" height="23.9"/>
	<text transform="matrix(1 0 0 1 243.2681 375)" class="st0 st5 st6">1</text>
	<text transform="matrix(1 0 0 1 243.2681 398.917)" class="st0 st5 st6">2</text>
	<text transform="matrix(1 0 0 1 243.2681 423.9727)" class="st0 st5 st6">3</text>
	<text transform="matrix(1 0 0 1 243.2681 449.0273)" class="st0 st5 st6">4</text>
	<text transform="matrix(1 0 0 1 243.2681 474.083)" class="st0 st5 st6">5</text>
	<rect x="236.1" y="469.5" class="st1" width="15.9" height="1.1"/>
	<text transform="matrix(1 0 0 1 436.8789 352.2227)" class="st0 st5 st6">5</text>
	<text transform="matrix(1 0 0 1 436.8789 328.3057)" class="st0 st5 st6">4</text>
	<rect x="428.5" y="369.6" class="st9" width="87.7" height="41.9"/>
	<text transform="matrix(1 0 0 1 428.5273 373.8037)"><tspan x="0" y="0" class="st0 st5 st10">Join the community and talk </tspan><tspan x="0" y="6.8" class="st0 st5 st10">about your favorite songs!</tspan><tspan x="0" y="20.5" class="st0 st5 st10">- https://www.link.com/</tspan><tspan x="0" y="27.3" class="st0 st5 st10">- https://www.link.com/</tspan><tspan x="0" y="34.2" class="st0 st5 st10">- https://www.link.com/</tspan></text>
	<rect x="446.8" y="431.9" class="st9" width="61.5" height="8"/>
	<text transform="matrix(1 0 0 1 446.75 437.001)" class="st0 st5 st12">Want to try again?</text>
	<path class="st7" d="M501.7,461h-52.9c-0.8,0-1.4-0.6-1.4-1.4v-14.2c0-0.8,0.6-1.4,1.4-1.4h52.9c0.8,0,1.4,0.6,1.4,1.4v14.2
		C503.1,460.3,502.5,461,501.7,461z"/>
	<text transform="matrix(1 0 0 1 457.1885 454.9121)" class="st0 st5 st8">click me!</text>
	<line class="st13" x1="570.5" y1="123.7" x2="588" y2="106.2"/>
	<line class="st13" x1="574.7" y1="123.7" x2="557.2" y2="106.2"/>
	<rect x="567.5" y="34.5" class="st1" width="10.2" height="85.4"/>
	<line class="st13" x1="376.8" y1="397.1" x2="394.4" y2="379.6"/>
	<line class="st13" x1="381.1" y1="397.1" x2="363.6" y2="379.6"/>
	<rect x="373.9" y="307.8" class="st1" width="10.2" height="85.4"/>
	<text transform="matrix(1 0 0 1 557.6016 144.9443)"><tspan x="0" y="0" class="st1 st5 st6">scroll</tspan><tspan x="0" y="16.4" class="st1 st5 st6">down</tspan></text>
	<text transform="matrix(1 0 0 1 363.9902 418.2773)"><tspan x="0" y="0" class="st1 st5 st6">scroll</tspan><tspan x="0" y="16.4" class="st1 st5 st6">down</tspan></text>
</g>
</svg>
